<?xml version="1.0" standalone="no"?>
<!DOCTYPE svg PUBLIC "-//W3C//DTD SVG 20010904//EN"
 "http://www.w3.org/TR/2001/REC-SVG-20010904/DTD/svg10.dtd">
<svg version="1.0" xmlns="http://www.w3.org/2000/svg"
 width="260.000000pt" height="260.000000pt" viewBox="0 0 260.000000 260.000000"
 preserveAspectRatio="xMidYMid meet">
<metadata>
Created by potrace 1.14, written by Peter Selinger 2001-2017
</metadata>
<g transform="translate(0.000000,260.000000) scale(0.100000,-0.100000)"
fill="#000000" stroke="none">
<path d="M2433 2475 c0 -8 4 -12 9 -9 5 3 6 10 3 15 -9 13 -12 11 -12 -6z"/>
<path d="M2483 2465 c0 -8 5 -11 10 -8 6 3 7 1 3 -5 -4 -7 -2 -12 3 -12 15 0
14 15 -2 29 -10 8 -14 7 -14 -4z"/>
<path d="M2456 2463 c-11 -11 -6 -24 7 -17 6 4 4 -2 -6 -13 -9 -11 -14 -24
-10 -29 5 -5 -2 -1 -13 9 -19 16 -22 16 -28 2 -3 -9 -2 -13 3 -10 5 3 13 0 17
-7 4 -7 4 -10 -1 -6 -4 4 -13 0 -20 -9 -9 -13 -14 -13 -20 -3 -5 9 -4 11 3 6
8 -5 10 -1 6 9 -6 14 -8 14 -19 -2 -7 -10 -12 -22 -11 -26 0 -5 -7 -13 -16
-18 -27 -15 -22 -32 5 -18 21 11 20 10 -3 -13 -14 -13 -29 -22 -34 -20 -5 3
-6 -3 -2 -13 6 -18 6 -18 -15 1 -12 10 -19 13 -14 5 6 -11 4 -13 -8 -8 -11 4
-14 2 -10 -8 3 -8 9 -12 14 -9 5 3 9 0 9 -5 0 -6 -7 -11 -16 -11 -8 0 -12 -4
-9 -10 6 -9 -8 -14 -27 -11 -5 0 -8 -2 -9 -7 -2 -24 -8 -45 -15 -50 -4 -4 -4
1 -1 10 3 10 2 20 -4 24 -14 8 -39 -15 -33 -31 3 -7 0 -16 -5 -20 -6 -3 -8
-11 -5 -17 4 -7 2 -8 -4 -4 -7 4 -12 1 -12 -8 0 -9 -5 -16 -11 -16 -5 0 -7 5
-4 10 3 6 1 10 -4 10 -6 0 -11 -3 -12 -7 -2 -25 -8 -46 -15 -51 -4 -4 -5 1 -1
10 6 16 -20 35 -31 23 -3 -3 0 -5 6 -5 7 0 12 -5 12 -11 0 -5 -4 -7 -10 -4 -5
3 -10 2 -10 -4 0 -6 -8 -8 -17 -5 -14 5 -15 4 -4 -4 8 -6 20 -8 28 -5 7 3 13
0 13 -7 0 -6 -5 -8 -12 -4 -8 5 -9 2 -4 -11 5 -13 3 -15 -6 -8 -19 15 -47 12
-41 -4 3 -7 9 -10 14 -7 5 3 9 0 9 -5 0 -6 -7 -11 -16 -11 -8 0 -12 -4 -9 -10
3 -5 1 -10 -5 -10 -7 0 -10 6 -7 13 3 8 1 20 -4 28 -8 12 -10 12 -8 -1 1 -8 1
-22 0 -30 -1 -13 -2 -13 -11 0 -6 9 -10 10 -10 3 0 -7 6 -16 14 -20 11 -6 9
-12 -9 -26 -17 -12 -26 -14 -31 -5 -5 7 -3 8 6 3 9 -6 11 -4 5 5 -5 9 -4 11 3
6 8 -5 10 -1 5 10 -4 11 -8 13 -11 6 -2 -7 -8 -10 -12 -7 -5 3 -7 -4 -5 -15 3
-18 0 -20 -18 -15 -17 5 -19 4 -7 -4 13 -10 13 -11 0 -12 -8 -1 -18 -1 -21 -1
-3 1 -6 -5 -6 -13 0 -8 5 -11 10 -8 5 3 7 0 5 -8 -3 -8 -11 -13 -18 -11 -7 2
-20 -4 -30 -13 -9 -8 -20 -12 -24 -8 -4 5 -7 3 -6 -2 5 -25 -1 -37 -16 -31 -9
3 -12 2 -9 -5 4 -5 15 -7 26 -4 11 4 19 2 19 -5 0 -6 -4 -8 -10 -5 -5 3 -10
-1 -10 -9 0 -9 -5 -16 -11 -16 -5 0 -7 5 -4 10 10 15 -3 12 -25 -7 -26 -23
-25 -32 3 -27 12 2 15 1 7 -2 -8 -3 -20 -13 -27 -22 -10 -12 -15 -13 -28 -2
-18 15 -20 -1 -2 -19 10 -10 9 -12 -3 -9 -8 2 -18 10 -22 18 -5 11 -7 9 -7 -7
-1 -12 5 -24 12 -27 6 -3 -3 -3 -20 0 -20 2 -33 0 -33 -6 0 -6 4 -9 8 -6 4 2
14 0 22 -5 11 -7 8 -8 -10 -5 -14 2 -34 -2 -45 -10 -10 -8 -13 -14 -7 -14 20
0 13 -24 -14 -43 -21 -16 -28 -17 -42 -5 -15 11 -15 11 -5 -3 13 -16 8 -29 -9
-29 -5 0 -6 5 -2 12 4 7 3 8 -4 4 -6 -4 -9 -13 -6 -21 8 -19 -22 -60 -44 -60
-9 0 -17 -8 -17 -17 0 -9 -4 -20 -9 -25 -5 -4 -6 -3 -2 4 3 6 2 14 -4 18 -9 5
-15 -24 -11 -49 1 -5 -5 -6 -14 -2 -9 3 -25 -4 -38 -17 -12 -12 -26 -21 -30
-19 -4 1 -3 -7 4 -19 6 -12 7 -19 1 -15 -5 3 -13 -1 -16 -9 -3 -8 -9 -15 -13
-14 -22 4 -32 -3 -27 -16 7 -18 -12 -20 -20 -2 -4 6 -4 2 -2 -10 2 -13 -2 -24
-11 -27 -12 -5 -13 -9 -3 -21 7 -9 8 -15 2 -15 -14 0 -23 28 -12 35 6 4 10 11
10 18 0 6 -7 1 -16 -11 -13 -19 -18 -21 -32 -10 -14 10 -15 10 -5 -1 6 -7 9
-21 6 -30 -3 -12 -1 -11 11 3 16 20 22 11 8 -11 -10 -16 -48 -9 -44 8 2 8 0
10 -4 6 -10 -10 -15 -39 -6 -33 4 2 12 -2 19 -9 19 -21 -8 -26 -32 -6 -18 15
-19 15 -7 0 10 -14 10 -18 -3 -22 -8 -4 -12 -13 -9 -22 6 -16 -7 -21 -20 -8
-10 11 -30 11 -37 0 -3 -5 -9 -1 -12 8 -4 9 -3 14 1 11 5 -3 9 1 9 8 0 8 -6
12 -14 9 -18 -7 -55 36 -48 56 3 10 -1 9 -11 -4 -16 -20 -16 -20 -9 3 6 20 4
23 -12 18 -20 -6 -48 27 -38 44 4 6 -1 13 -9 16 -9 3 -13 11 -9 17 3 5 1 7 -5
4 -14 -9 -43 3 -36 14 3 5 -2 9 -10 9 -9 0 -16 5 -16 11 0 5 4 7 10 4 6 -3 7
1 4 9 -3 9 -10 16 -16 16 -5 0 -6 6 -2 13 5 8 2 8 -9 -2 -9 -7 -17 -10 -17 -6
0 4 -6 2 -13 -4 -11 -9 -13 -4 -12 24 2 19 -1 32 -6 29 -5 -3 -7 -9 -4 -14 3
-5 1 -11 -4 -14 -5 -4 -8 4 -7 17 2 19 -1 23 -18 22 -16 -2 -22 3 -23 17 -2
19 -1 19 11 3 10 -14 15 -15 21 -5 5 8 4 11 -3 6 -6 -3 -14 3 -17 15 -5 15 -9
18 -15 9 -6 -9 -14 -8 -34 5 -22 14 -28 35 -10 35 3 0 2 -5 -2 -12 -4 -7 -3
-8 5 -4 15 10 3 29 -15 22 -7 -3 -26 6 -41 19 -16 13 -22 25 -15 25 6 0 12 -3
12 -8 0 -4 9 -13 20 -19 15 -10 21 -10 26 0 4 6 4 9 -1 5 -11 -10 -37 11 -29
23 3 5 0 8 -8 7 -7 -2 -12 3 -10 10 2 9 -2 11 -10 6 -19 -12 -37 -13 -43 -4
-3 5 4 7 15 5 11 -2 20 0 20 6 0 5 -6 9 -12 10 -47 3 -67 13 -43 23 9 3 14 2
11 -2 -2 -4 5 -9 16 -9 20 -2 20 -1 2 12 -10 7 -22 11 -26 9 -5 -3 -8 0 -8 6
0 6 -4 9 -9 6 -5 -3 -14 8 -21 24 -15 36 -26 45 -36 29 -5 -8 -3 -9 6 -4 9 5
11 4 6 -3 -10 -16 -11 -16 -31 14 -13 20 -14 28 -5 34 8 5 7 9 -5 13 -9 4 -13
3 -10 -3 3 -6 1 -10 -6 -10 -6 0 -9 8 -6 19 4 15 0 18 -19 16 -13 -1 -24 2
-24 7 0 5 -5 6 -12 2 -7 -4 -8 -3 -4 5 4 6 11 9 16 6 5 -3 11 -1 14 4 3 5 -10
8 -29 6 -19 -1 -32 2 -29 7 3 4 10 6 15 3 14 -9 11 5 -6 21 -8 9 -21 12 -27 9
-7 -4 -5 0 5 8 16 13 16 15 2 21 -9 3 -13 2 -10 -4 3 -6 1 -10 -4 -10 -6 0
-11 7 -11 16 0 8 -4 12 -10 9 -9 -6 -14 8 -11 28 0 4 -6 7 -15 7 -8 0 -12 -4
-9 -10 4 -6 -1 -7 -11 -3 -14 5 -13 8 7 19 13 7 18 13 11 14 -13 0 -43 24 -39
31 1 3 -4 -3 -12 -11 -12 -13 -13 -13 -8 3 6 16 -8 23 -36 18 -5 -1 -6 3 -2 8
3 6 11 9 18 7 7 -1 9 -1 4 1 -4 3 -4 9 -1 15 4 6 -2 6 -14 -1 -30 -16 -39 -14
-16 4 16 13 16 14 2 9 -20 -7 -24 5 -8 24 6 6 7 10 3 7 -3 -3 -15 3 -25 12
-17 15 -21 15 -30 3 -8 -12 -9 -12 -4 3 3 10 0 17 -7 17 -9 0 -8 3 1 9 11 7
11 9 -1 14 -12 4 -15 0 -12 -14 3 -16 0 -19 -12 -15 -12 5 -14 1 -11 -18 4
-18 1 -23 -10 -19 -12 5 -12 2 -2 -17 11 -20 10 -22 -4 -17 -8 3 -18 2 -21 -4
-4 -5 -3 -9 2 -8 30 5 37 -3 16 -20 -18 -15 -20 -20 -8 -24 13 -6 14 -35 0
-56 -3 -5 -2 -12 3 -15 5 -3 9 1 10 9 1 8 3 22 4 30 1 8 5 15 10 15 11 0 10
-7 -2 -31 -8 -14 -7 -19 2 -19 10 0 9 -3 -1 -9 -17 -11 -23 -39 -11 -46 5 -3
7 4 5 15 -2 11 0 18 5 15 7 -4 7 -34 0 -42 -8 -9 -4 -49 5 -56 6 -6 3 -7 -7
-4 -9 3 -24 -3 -35 -16 -18 -22 -18 -22 2 -5 14 12 25 14 35 8 13 -8 12 -10
-2 -10 -11 0 -15 -5 -12 -15 4 -8 10 -13 14 -10 5 3 12 0 16 -6 4 -7 3 -9 -4
-5 -6 3 -13 2 -17 -4 -3 -5 0 -10 7 -10 10 0 10 -2 -1 -9 -20 -13 -22 -41 -4
-48 14 -5 13 -8 -4 -14 -15 -5 -20 -15 -18 -33 2 -16 -3 -30 -13 -36 -10 -5
-12 -10 -6 -10 6 0 17 7 24 15 7 8 9 15 5 15 -4 0 -2 7 5 15 10 12 10 15 0 15
-8 0 -11 3 -7 6 3 3 11 3 17 -1 8 -5 8 -11 -1 -21 -9 -11 -8 -15 5 -20 16 -6
23 -25 9 -23 -27 4 -33 -2 -23 -21 6 -11 7 -20 3 -20 -4 0 0 -7 10 -14 15 -12
16 -14 2 -20 -8 -3 -15 -13 -15 -21 0 -10 5 -13 12 -9 9 5 9 2 -1 -9 -11 -14
-11 -17 0 -17 11 0 11 -2 0 -9 -17 -11 -23 -39 -11 -46 5 -3 7 4 5 15 -2 11 0
18 5 15 7 -4 7 -34 0 -42 -8 -9 -4 -49 5 -56 6 -6 3 -7 -7 -4 -9 3 -24 -3 -35
-16 -18 -22 -18 -22 2 -5 14 12 25 14 35 8 13 -8 12 -10 -2 -10 -11 0 -15 -5
-12 -15 4 -8 10 -13 14 -10 5 3 12 0 16 -6 4 -7 3 -9 -4 -5 -6 3 -13 2 -17 -4
-3 -5 0 -10 7 -10 10 0 10 -2 -1 -9 -20 -13 -22 -41 -4 -48 14 -5 13 -8 -4
-14 -15 -5 -20 -15 -18 -33 2 -16 -3 -30 -13 -36 -10 -5 -12 -10 -6 -10 6 0
17 7 24 15 7 8 9 15 5 15 -4 0 -2 7 5 15 10 12 10 15 0 15 -8 0 -11 3 -7 6 3
3 11 3 17 -1 8 -5 8 -11 -1 -21 -9 -11 -8 -15 5 -20 16 -6 23 -25 9 -23 -27 4
-33 -2 -23 -21 6 -11 7 -20 3 -20 -4 0 0 -7 10 -14 15 -12 16 -14 2 -20 -8 -3
-15 -13 -15 -21 0 -10 5 -13 13 -9 8 5 8 2 -2 -9 -11 -14 -11 -17 0 -17 11 0
11 -2 0 -9 -17 -11 -23 -39 -11 -46 5 -3 7 4 5 15 -2 11 0 18 5 15 7 -4 7 -34
0 -42 -8 -9 -4 -49 5 -56 6 -6 3 -7 -7 -4 -9 3 -24 -3 -35 -16 -18 -22 -18
-22 2 -5 14 12 25 14 35 8 13 -8 12 -10 -2 -10 -11 0 -15 -5 -12 -15 4 -8 10
-13 14 -10 5 3 12 0 16 -6 4 -7 3 -9 -4 -5 -6 3 -13 2 -17 -4 -3 -5 0 -10 7
-10 10 0 10 -2 -1 -9 -20 -13 -22 -41 -4 -48 14 -5 13 -8 -4 -14 -15 -5 -20
-15 -18 -33 2 -16 -3 -30 -13 -36 -10 -5 -12 -10 -6 -10 6 0 17 7 24 15 7 8 9
15 5 15 -4 0 -2 7 5 15 10 12 10 15 0 15 -8 0 -11 3 -7 6 3 3 11 3 17 -1 8 -5
8 -11 -1 -21 -9 -11 -8 -15 5 -20 16 -6 23 -25 9 -23 -27 4 -33 -2 -23 -21 6
-11 7 -20 3 -20 -4 0 0 -7 10 -14 15 -12 16 -14 2 -20 -8 -3 -15 -13 -15 -21
0 -10 5 -13 13 -9 8 5 8 2 -2 -9 -11 -14 -11 -17 0 -17 11 0 11 -2 0 -9 -17
-11 -23 -39 -11 -46 5 -3 7 4 5 15 -2 11 0 18 5 15 7 -4 7 -34 0 -42 -8 -9 -4
-49 5 -56 6 -6 3 -7 -7 -4 -9 3 -24 -3 -35 -16 -18 -22 -18 -22 2 -5 14 12 25
14 35 8 13 -8 12 -10 -2 -10 -11 0 -15 -5 -12 -15 4 -8 11 -12 18 -8 8 5 8 3
0 -8 -12 -16 -12 -29 -1 -46 4 -6 2 -15 -4 -19 -7 -4 -9 -3 -5 4 3 6 2 13 -2
16 -14 9 -8 -40 8 -59 12 -15 11 -19 -10 -36 -14 -10 -29 -19 -34 -19 -5 0 -6
-3 -3 -6 4 -4 12 -2 19 4 9 7 17 5 28 -6 13 -14 13 -15 -1 -10 -8 3 -26 -3
-40 -14 -13 -11 -19 -17 -12 -14 15 8 44 -4 38 -15 -3 -4 -13 -6 -23 -3 -14 5
-14 4 -2 -4 8 -6 18 -8 22 -6 4 3 8 0 8 -5 0 -6 5 -11 11 -11 5 0 7 5 3 12 -4
7 -3 8 4 4 6 -4 8 -14 5 -23 -5 -12 -3 -14 8 -7 21 13 49 15 49 4 0 -7 7 -7
18 -2 9 4 24 8 32 7 8 -1 21 3 28 9 9 7 12 5 10 -4 -4 -19 24 -19 40 0 8 8 11
10 8 4 -3 -7 1 -15 10 -18 8 -3 13 -2 9 3 -3 5 3 8 12 6 10 -1 24 2 31 8 10 8
12 7 10 -3 -3 -14 5 -15 72 -7 14 1 31 6 38 11 8 5 11 3 10 -5 -4 -18 24 -18
40 1 8 8 11 10 8 4 -3 -7 1 -15 10 -18 8 -3 13 -2 9 3 -3 5 3 8 12 6 10 -1 24
2 31 8 10 8 12 7 10 -4 -2 -8 3 -13 11 -11 7 1 20 -3 29 -10 12 -10 14 -10 8
-1 -7 13 -5 14 32 17 9 1 23 5 30 9 8 6 11 4 10 -4 -4 -18 24 -18 40 1 8 8 11
10 8 4 -3 -7 1 -15 10 -18 8 -3 13 -2 9 3 -3 5 3 8 12 6 10 -1 24 2 31 8 10 8
12 7 10 -3 -3 -14 5 -15 72 -7 14 1 31 6 38 11 8 5 11 3 10 -5 -4 -18 24 -18
40 1 8 8 11 10 8 4 -3 -7 1 -15 10 -18 8 -3 13 -2 9 3 -3 5 3 8 12 6 10 -1 24
2 31 8 10 8 12 7 10 -3 -3 -14 5 -15 72 -7 14 1 31 6 38 11 8 5 11 3 10 -5 -4
-18 24 -18 40 1 8 8 11 10 8 4 -3 -7 1 -15 10 -18 8 -3 13 -2 9 3 -3 5 3 8 12
6 10 -1 24 2 31 8 10 8 12 7 10 -3 -3 -14 5 -15 72 -7 14 1 31 6 38 11 8 5 11
3 10 -5 -4 -18 24 -18 40 1 8 8 11 10 8 4 -3 -7 1 -15 10 -18 8 -3 13 -2 9 3
-3 5 3 8 12 6 10 -1 24 2 31 8 10 8 12 7 10 -4 -2 -8 3 -13 11 -11 7 1 20 -3
29 -10 12 -10 14 -10 8 0 -7 12 -5 13 32 16 9 1 23 5 30 9 8 6 11 4 10 -4 -4
-18 24 -18 40 1 8 8 11 10 8 4 -3 -7 1 -15 10 -18 8 -3 13 -2 9 3 -3 5 3 8 12
6 10 -1 24 2 31 8 10 8 12 7 10 -3 -3 -14 5 -15 72 -7 14 1 31 6 38 11 8 5 11
3 10 -5 -4 -18 24 -18 40 1 8 8 11 10 8 4 -3 -7 1 -15 10 -18 8 -3 13 -2 9 3
-3 5 3 8 12 6 10 -1 24 2 31 8 10 8 12 7 10 -3 -3 -14 5 -15 72 -7 14 1 31 6
38 11 8 4 11 3 10 -4 -2 -7 5 -14 15 -15 9 -2 17 1 17 6 0 6 7 6 18 0 13 -7
22 -7 29 0 8 8 13 7 18 -2 6 -8 4 -10 -5 -4 -9 5 -11 4 -6 -4 6 -9 11 -9 22 0
8 6 14 8 14 4 0 -4 6 -2 14 4 11 9 16 9 22 0 5 -8 3 -9 -6 -4 -9 5 -11 4 -6
-4 4 -6 12 -9 17 -5 5 3 7 9 4 14 -3 4 2 11 11 14 8 3 13 2 10 -2 -2 -4 -1
-14 5 -22 6 -11 9 -12 9 -2 0 7 5 10 10 7 6 -3 10 -2 10 4 0 5 -6 12 -12 14
-10 4 -10 6 0 6 7 1 15 -6 18 -14 4 -8 10 -15 16 -15 5 0 6 6 2 13 -5 7 0 6
11 -3 15 -12 17 -12 10 -1 -6 11 -3 13 12 9 13 -4 27 2 37 13 9 11 12 19 6 19
-5 0 -13 -8 -19 -17 -9 -16 -10 -16 -8 4 0 12 5 19 11 16 5 -4 7 1 2 12 -6 15
-4 16 10 5 13 -12 17 -11 24 0 11 17 -17 53 -33 43 -6 -3 -7 -1 -3 6 4 6 12 8
18 5 6 -4 8 -1 6 7 -3 8 -11 13 -17 11 -9 -2 -9 3 -1 18 6 11 15 20 20 20 6 0
10 5 10 10 0 7 -8 7 -22 -1 -13 -6 -20 -8 -16 -4 4 5 3 14 -3 22 -8 8 -8 13
-1 13 6 0 12 -5 14 -12 3 -8 9 -8 24 1 15 10 15 11 2 7 -23 -7 -23 10 -1 22
13 8 11 10 -10 10 -16 0 -24 -5 -20 -11 3 -6 1 -7 -6 -3 -16 10 -4 26 20 26
10 0 19 5 19 11 0 5 -4 8 -8 5 -4 -2 -14 0 -22 6 -12 8 -11 9 3 4 12 -4 17 -2
14 6 -2 7 -10 12 -16 10 -9 -2 -9 3 -1 18 6 11 15 20 20 20 6 0 10 5 10 10 0
7 -8 7 -22 -1 -13 -6 -20 -8 -16 -4 4 5 3 14 -3 22 -8 8 -8 13 -1 13 6 0 12
-5 14 -12 3 -8 9 -8 24 1 15 10 15 11 2 7 -23 -7 -23 10 -1 22 13 8 11 9 -10
9 -16 0 -24 -4 -20 -10 3 -6 1 -7 -6 -3 -16 10 -4 26 20 26 10 0 19 5 19 11 0
5 -4 8 -8 5 -4 -2 -14 0 -22 6 -12 8 -11 9 3 4 12 -4 17 -2 14 6 -2 7 -10 12
-16 10 -9 -2 -9 3 -1 18 6 11 15 20 20 20 6 0 10 5 10 10 0 7 -8 7 -22 -1 -13
-6 -20 -8 -16 -4 4 5 3 14 -3 22 -8 8 -8 13 -1 13 6 0 12 -5 14 -12 3 -8 9 -8
24 1 15 10 15 11 2 7 -23 -7 -23 10 -1 22 13 8 11 10 -10 10 -16 0 -24 -5 -20
-11 3 -6 1 -7 -6 -3 -16 10 -4 26 20 26 10 0 19 5 19 11 0 5 -4 8 -8 5 -4 -2
-14 0 -22 6 -12 8 -11 9 3 4 12 -4 17 -2 14 6 -2 7 -10 12 -16 10 -9 -2 -9 3
-1 18 6 11 15 20 20 20 6 0 10 5 10 10 0 7 -8 7 -22 -1 -13 -6 -20 -8 -16 -4
4 5 3 14 -3 22 -8 8 -8 13 -1 13 6 0 12 -5 14 -12 3 -8 9 -8 24 1 15 10 15 11
2 7 -23 -7 -23 10 -1 22 13 8 11 10 -10 10 -16 0 -24 -5 -20 -11 3 -6 1 -7 -6
-3 -16 10 -4 26 20 26 10 0 19 5 19 11 0 5 -4 8 -8 5 -4 -2 -14 0 -22 6 -12 8
-11 9 3 4 12 -4 17 -2 14 6 -2 7 -10 12 -16 10 -9 -2 -9 3 -1 18 6 11 15 20
20 20 6 0 10 5 10 10 0 7 -8 7 -22 -1 -13 -6 -20 -8 -16 -4 4 5 3 14 -3 22 -8
8 -8 13 -1 13 6 0 12 -5 14 -12 3 -8 9 -8 24 1 15 10 15 11 2 7 -23 -7 -23 10
-1 22 13 8 11 10 -10 10 -16 0 -24 -5 -20 -11 3 -6 1 -7 -6 -3 -16 10 -4 26
20 26 10 0 19 5 19 11 0 5 -4 8 -8 5 -4 -2 -14 0 -22 6 -12 8 -11 9 3 4 12 -4
17 -2 14 6 -2 7 -10 12 -16 10 -9 -2 -9 3 -1 18 6 11 15 20 20 20 6 0 10 5 10
10 0 7 -8 7 -22 -1 -13 -6 -20 -8 -16 -4 4 5 3 14 -3 22 -8 8 -8 13 -1 13 6 0
12 -5 14 -12 3 -8 9 -8 24 1 15 10 15 11 2 7 -23 -7 -23 10 -1 22 13 8 11 10
-10 10 -16 0 -24 -5 -20 -11 3 -6 1 -7 -6 -3 -16 10 -4 26 20 26 10 0 19 5 19
11 0 5 -4 8 -8 5 -4 -2 -14 0 -22 6 -12 8 -11 9 3 4 12 -4 17 -2 14 6 -2 7
-10 12 -16 10 -9 -2 -9 3 -1 18 6 11 15 20 20 20 6 0 10 5 10 10 0 7 -8 7 -22
-1 -13 -6 -20 -8 -16 -4 4 5 3 14 -3 22 -8 8 -8 13 -1 13 6 0 12 -5 14 -12 3
-8 9 -8 24 1 15 10 15 11 2 7 -23 -7 -23 10 -1 22 13 8 11 9 -10 10 -16 0 -24
-5 -20 -11 3 -6 1 -7 -6 -3 -16 10 -4 26 20 26 10 0 19 5 19 11 0 5 -4 8 -8 5
-4 -2 -14 0 -22 6 -12 8 -11 9 3 4 12 -4 17 -2 14 6 -2 7 -10 12 -16 10 -9 -2
-9 3 -1 18 6 11 15 20 20 20 6 0 10 5 10 10 0 7 -8 7 -22 -1 -13 -6 -20 -8
-16 -4 4 5 3 14 -3 22 -8 8 -8 13 -1 13 6 0 12 -5 14 -12 3 -8 9 -8 24 1 15
10 15 11 2 7 -23 -7 -23 10 -1 22 13 8 11 10 -10 10 -16 0 -24 -5 -20 -11 3
-6 1 -7 -6 -3 -16 10 -4 26 20 26 10 0 19 5 19 11 0 5 -4 8 -8 5 -4 -2 -14 0
-22 6 -12 8 -11 9 3 4 12 -4 17 -2 14 6 -2 7 -10 12 -16 10 -9 -2 -9 3 -1 18
6 11 15 20 20 20 6 0 10 5 10 10 0 7 -8 7 -22 -1 -13 -6 -20 -8 -16 -4 4 5 3
14 -3 22 -8 8 -8 13 -1 13 6 0 12 -5 14 -12 3 -8 9 -8 24 1 15 10 15 11 2 7
-23 -7 -23 10 -1 22 13 8 11 10 -10 10 -16 0 -24 -5 -20 -11 3 -6 1 -7 -6 -3
-16 10 -4 26 20 26 10 0 19 5 19 11 0 5 -4 8 -8 5 -4 -2 -14 0 -22 6 -12 8
-11 9 3 4 12 -4 17 -2 14 6 -2 7 -10 12 -16 10 -9 -2 -9 3 -1 18 6 11 15 20
20 20 6 0 10 5 10 10 0 7 -8 7 -22 -1 -13 -6 -20 -8 -16 -4 4 5 3 14 -3 22 -8
8 -8 13 -1 13 6 0 12 -5 14 -12 3 -8 9 -8 24 1 15 10 15 11 2 7 -23 -7 -23 10
-1 22 13 8 11 9 -10 10 -16 0 -24 -5 -20 -11 3 -6 1 -7 -6 -3 -16 10 -4 26 20
26 10 0 19 5 19 11 0 5 -4 8 -8 5 -4 -2 -14 0 -22 6 -12 8 -11 9 3 4 12 -4 17
-2 14 6 -2 7 -10 12 -16 10 -9 -2 -9 3 -1 18 6 11 15 20 20 20 6 0 10 5 10 10
0 7 -8 7 -22 -1 -13 -6 -20 -8 -16 -4 4 5 3 14 -3 22 -8 8 -8 13 -1 13 6 0 12
-5 14 -12 3 -8 9 -8 24 1 15 10 15 11 2 7 -23 -7 -23 10 -1 22 13 8 11 10 -10
10 -16 0 -24 -5 -20 -11 3 -6 1 -7 -6 -3 -16 10 -4 26 20 26 10 0 19 5 19 11
0 5 -4 8 -8 5 -4 -2 -14 0 -22 6 -12 8 -11 9 3 4 12 -4 17 -2 14 6 -2 7 -10
12 -16 10 -9 -2 -9 3 -1 18 6 11 15 20 20 20 6 0 10 5 10 10 0 7 -8 7 -22 -1
-13 -6 -20 -8 -16 -4 4 5 3 14 -3 22 -8 8 -8 13 -1 13 6 0 12 -5 14 -12 3 -8
9 -8 24 1 15 10 15 11 2 7 -23 -7 -23 10 -1 22 13 8 11 10 -10 10 -16 0 -24
-5 -20 -11 3 -6 1 -7 -6 -3 -16 10 -4 26 20 26 10 0 19 5 19 11 0 5 -4 8 -8 5
-4 -2 -14 0 -22 6 -12 8 -11 9 3 4 12 -4 17 -2 14 6 -2 7 -10 12 -16 10 -9 -2
-9 3 -1 18 6 11 15 20 20 20 6 0 10 5 10 10 0 7 -8 7 -22 -1 -13 -6 -20 -8
-16 -4 4 5 3 14 -3 22 -8 8 -8 13 -1 13 6 0 12 -5 14 -12 3 -8 9 -8 24 1 15
10 15 11 2 7 -23 -7 -23 10 -1 22 13 8 11 10 -10 10 -16 0 -24 -5 -20 -11 3
-6 1 -7 -6 -3 -16 10 -4 26 20 26 10 0 19 5 19 11 0 5 -4 8 -8 5 -4 -2 -14 0
-22 6 -12 8 -11 9 3 4 12 -4 17 -2 14 6 -2 7 -10 12 -16 10 -7 -1 -10 2 -6 8
3 6 10 8 15 5 5 -3 12 0 16 6 4 7 3 9 -3 6 -6 -4 -16 0 -22 7 -10 12 -8 13 8
9 13 -3 21 -1 21 6 0 7 -4 10 -8 7 -4 -2 -14 0 -22 6 -12 8 -11 9 4 4 13 -5
17 -2 13 8 -3 8 1 17 10 20 12 5 13 9 3 21 -7 8 -9 15 -6 15 4 0 2 9 -4 20 -8
15 -8 20 1 20 7 0 9 3 6 6 -4 4 -14 1 -23 -7 -14 -11 -19 -10 -34 8 -10 12
-20 19 -24 16z m69 -53 c3 -6 -1 -7 -9 -4 -18 7 -21 14 -7 14 6 0 13 -4 16
-10z m11 -31 c4 -8 0 -9 -15 -4 -17 5 -20 3 -15 -12 5 -14 4 -15 -4 -3 -6 8
-8 18 -6 22 7 12 32 10 40 -3z m-151 -27 c-8 -8 -25 10 -19 20 4 6 9 5 15 -3
4 -7 6 -15 4 -17z m-188 -167 c0 -8 -4 -12 -9 -9 -5 3 -6 10 -3 15 9 13 12 11
12 -6z m-1998 -79 c9 -11 9 -16 -1 -22 -7 -4 -10 -4 -6 1 4 4 3 14 -3 22 -6 7
-9 13 -6 13 2 0 10 -6 16 -14z m-69 -84 c0 -13 -12 -22 -22 -16 -10 6 -1 24
13 24 5 0 9 -4 9 -8z m175 -32 c3 -5 1 -10 -4 -10 -6 0 -11 5 -11 10 0 6 2 10
4 10 3 0 8 -4 11 -10z m1655 -70 c-8 -5 -18 -6 -22 -4 -4 3 -8 0 -8 -6 0 -6
-5 -8 -11 -4 -14 8 2 19 33 21 17 2 19 0 8 -7z m-83 -55 c0 -8 -4 -12 -9 -9
-4 3 -8 0 -8 -5 0 -6 -5 -11 -12 -11 -6 0 -3 9 7 20 22 24 22 24 22 5z m-1752
-154 c3 -5 2 -12 -3 -15 -5 -3 -9 1 -9 9 0 17 3 19 12 6z m1554 -62 c-15 -9
-32 -2 -24 11 3 5 13 6 21 3 12 -4 13 -8 3 -14z m-235 -237 c3 -5 -1 -9 -9 -9
-8 0 -12 4 -9 9 3 4 7 8 9 8 2 0 6 -4 9 -8z m-541 -27 c-7 -21 -12 -19 -10 4
0 11 5 18 9 15 4 -3 5 -11 1 -19z m77 -65 c8 -5 11 -10 5 -10 -5 0 -17 5 -25
10 -8 5 -10 10 -5 10 6 0 17 -5 25 -10z m-855 -89 c3 -5 2 -12 -3 -15 -5 -3
-9 1 -9 9 0 17 3 19 12 6z m0 -480 c3 -5 2 -12 -3 -15 -5 -3 -9 1 -9 9 0 17 3
19 12 6z m18 -456 c-3 -9 -8 -14 -10 -11 -3 3 -2 9 2 15 9 16 15 13 8 -4z
m2392 -155 c8 -13 -5 -13 -25 0 -13 8 -13 10 2 10 9 0 20 -4 23 -10z m-2085
-66 c0 -8 -19 -13 -24 -6 -3 5 1 9 9 9 8 0 15 -2 15 -3z m240 0 c0 -8 -19 -13
-24 -6 -3 5 1 9 9 9 8 0 15 -2 15 -3z m240 0 c0 -8 -19 -13 -24 -6 -3 5 1 9 9
9 8 0 15 -2 15 -3z m240 0 c0 -8 -19 -13 -24 -6 -3 5 1 9 9 9 8 0 15 -2 15 -3z
m240 0 c0 -8 -19 -13 -24 -6 -3 5 1 9 9 9 8 0 15 -2 15 -3z m240 0 c0 -8 -19
-13 -24 -6 -3 5 1 9 9 9 8 0 15 -2 15 -3z m240 0 c0 -8 -19 -13 -24 -6 -3 5 1
9 9 9 8 0 15 -2 15 -3z m240 0 c0 -8 -19 -13 -24 -6 -3 5 1 9 9 9 8 0 15 -2
15 -3z m194 -2 c3 -5 -1 -9 -9 -9 -8 0 -12 4 -9 9 3 4 7 8 9 8 2 0 6 -4 9 -8z"/>
<path d="M2430 2434 c0 -8 5 -12 10 -9 6 4 8 11 5 16 -9 14 -15 11 -15 -7z"/>
<path d="M2310 2320 c0 -5 -8 -7 -17 -4 -14 5 -15 4 -4 -4 16 -12 44 -4 35 9
-7 12 -14 11 -14 -1z"/>
<path d="M2235 2261 c-3 -12 -10 -19 -14 -17 -4 3 -8 -1 -8 -9 0 -10 4 -12 12
-5 7 5 14 7 17 4 9 -9 17 22 8 36 -6 9 -10 7 -15 -9z"/>
<path d="M115 2160 c3 -5 8 -10 11 -10 2 0 4 5 4 10 0 6 -5 10 -11 10 -5 0 -7
-4 -4 -10z"/>
<path d="M2142 2155 c-7 -8 -9 -15 -4 -15 5 0 15 7 22 15 16 19 -1 19 -18 0z"/>
<path d="M2526 2132 c-3 -5 1 -9 9 -9 8 0 12 4 9 9 -3 4 -7 8 -9 8 -2 0 -6 -4
-9 -8z"/>
<path d="M87 2119 c7 -7 15 -10 18 -7 3 3 -2 9 -12 12 -14 6 -15 5 -6 -5z"/>
<path d="M2526 1972 c-3 -5 1 -9 9 -9 8 0 12 4 9 9 -3 4 -7 8 -9 8 -2 0 -6 -4
-9 -8z"/>
<path d="M76 1893 c-6 -14 -5 -15 5 -6 7 7 10 15 7 18 -3 3 -9 -2 -12 -12z"/>
<path d="M97 1873 c-10 -9 -9 -23 1 -23 5 0 9 7 9 15 0 17 -1 18 -10 8z"/>
<path d="M2526 1812 c-3 -5 1 -9 9 -9 8 0 12 4 9 9 -3 4 -7 8 -9 8 -2 0 -6 -4
-9 -8z"/>
<path d="M526 1768 c3 -5 10 -6 15 -3 13 9 11 12 -6 12 -8 0 -12 -4 -9 -9z"/>
<path d="M93 1750 c-1 -11 2 -20 7 -20 4 0 7 7 6 15 -3 23 -12 26 -13 5z"/>
<path d="M1750 1754 c0 -8 5 -12 10 -9 6 4 8 11 5 16 -9 14 -15 11 -15 -7z"/>
<path d="M596 1727 c3 -10 9 -15 12 -12 3 3 0 11 -7 18 -10 9 -11 8 -5 -6z"/>
<path d="M2526 1652 c-3 -5 1 -9 9 -9 8 0 12 4 9 9 -3 4 -7 8 -9 8 -2 0 -6 -4
-9 -8z"/>
<path d="M1613 1635 c1 -12 -3 -19 -11 -17 -8 1 -11 -2 -7 -8 5 -8 13 -6 26 6
20 18 26 29 10 20 -5 -4 -12 0 -15 6 -3 7 -4 4 -3 -7z"/>
<path d="M94 1553 c2 -10 -1 -23 -6 -30 -8 -10 -4 -11 31 -4 2 1 -3 8 -10 18
-8 9 -12 18 -11 20 2 3 1 7 -1 10 -3 3 -4 -3 -3 -14z"/>
<path d="M1524 1533 c-1 -13 -1 -23 0 -21 1 2 7 10 14 19 10 13 10 18 0 22 -8
3 -14 -5 -14 -20z"/>
<path d="M1476 1513 c-6 -14 -5 -15 5 -6 7 7 10 15 7 18 -3 3 -9 -2 -12 -12z"/>
<path d="M2526 1492 c-3 -5 1 -9 9 -9 8 0 12 4 9 9 -3 4 -7 8 -9 8 -2 0 -6 -4
-9 -8z"/>
<path d="M94 1476 c1 -8 5 -18 8 -22 4 -3 5 1 4 10 -1 8 -5 18 -8 22 -4 3 -5
-1 -4 -10z"/>
<path d="M866 1433 c-6 -14 -5 -15 5 -6 7 7 10 15 7 18 -3 3 -9 -2 -12 -12z"/>
<path d="M76 1413 c-6 -14 -5 -15 5 -6 7 7 10 15 7 18 -3 3 -9 -2 -12 -12z"/>
<path d="M97 1393 c-10 -9 -9 -23 1 -23 5 0 9 7 9 15 0 17 -1 18 -10 8z"/>
<path d="M1356 1367 c-16 -12 -16 -14 -3 -14 9 0 18 6 21 14 3 7 4 13 3 13 -2
0 -11 -6 -21 -13z"/>
<path d="M2526 1332 c-3 -5 1 -9 9 -9 8 0 12 4 9 9 -3 4 -7 8 -9 8 -2 0 -6 -4
-9 -8z"/>
<path d="M1006 1301 c-3 -5 1 -14 9 -21 10 -9 15 -9 15 -1 0 6 -5 11 -11 11
-5 0 -7 5 -4 10 3 6 4 10 1 10 -3 0 -7 -4 -10 -9z"/>
<path d="M93 1270 c-1 -11 2 -20 7 -20 4 0 7 7 6 15 -3 23 -12 26 -13 5z"/>
<path d="M2526 1172 c-3 -5 1 -9 9 -9 8 0 12 4 9 9 -3 4 -7 8 -9 8 -2 0 -6 -4
-9 -8z"/>
<path d="M94 1073 c2 -10 -1 -23 -6 -30 -8 -10 -4 -11 31 -4 2 1 -3 8 -10 18
-8 9 -12 18 -11 20 2 3 1 7 -1 10 -3 3 -4 -3 -3 -14z"/>
<path d="M2526 1012 c-3 -5 1 -9 9 -9 8 0 12 4 9 9 -3 4 -7 8 -9 8 -2 0 -6 -4
-9 -8z"/>
<path d="M94 996 c1 -8 5 -18 8 -22 4 -3 5 1 4 10 -1 8 -5 18 -8 22 -4 3 -5
-1 -4 -10z"/>
<path d="M76 933 c-6 -14 -5 -15 5 -6 7 7 10 15 7 18 -3 3 -9 -2 -12 -12z"/>
<path d="M97 913 c-10 -9 -9 -23 1 -23 5 0 9 7 9 15 0 17 -1 18 -10 8z"/>
<path d="M2526 852 c-3 -5 1 -9 9 -9 8 0 12 4 9 9 -3 4 -7 8 -9 8 -2 0 -6 -4
-9 -8z"/>
<path d="M93 790 c-1 -11 2 -20 7 -20 4 0 7 7 6 15 -3 23 -12 26 -13 5z"/>
<path d="M2526 692 c-3 -5 1 -9 9 -9 8 0 12 4 9 9 -3 4 -7 8 -9 8 -2 0 -6 -4
-9 -8z"/>
<path d="M94 593 c2 -10 -1 -23 -6 -30 -8 -10 -4 -11 31 -4 2 1 -3 8 -10 18
-8 9 -12 18 -11 20 2 3 1 7 -1 10 -3 3 -4 -3 -3 -14z"/>
<path d="M2526 532 c-3 -5 1 -9 9 -9 8 0 12 4 9 9 -3 4 -7 8 -9 8 -2 0 -6 -4
-9 -8z"/>
<path d="M94 516 c1 -8 5 -18 8 -22 4 -3 5 1 4 10 -1 8 -5 18 -8 22 -4 3 -5
-1 -4 -10z"/>
<path d="M76 453 c-6 -14 -5 -15 5 -6 7 7 10 15 7 18 -3 3 -9 -2 -12 -12z"/>
<path d="M97 433 c-10 -9 -9 -23 1 -23 5 0 9 7 9 15 0 17 -1 18 -10 8z"/>
<path d="M2526 372 c-3 -5 1 -9 9 -9 8 0 12 4 9 9 -3 4 -7 8 -9 8 -2 0 -6 -4
-9 -8z"/>
<path d="M93 310 c-1 -11 2 -20 7 -20 4 0 7 7 6 15 -3 23 -12 26 -13 5z"/>
<path d="M93 204 c0 -8 6 -14 14 -14 7 0 13 4 13 9 0 5 -6 11 -13 14 -8 3 -14
-1 -14 -9z"/>
<path d="M2524 209 c-4 -7 -3 -9 4 -5 5 3 13 0 15 -6 4 -9 6 -10 6 -1 1 17
-16 25 -25 12z"/>
<path d="M156 48 c3 -5 10 -6 15 -3 13 9 11 12 -6 12 -8 0 -12 -4 -9 -9z"/>
<path d="M246 48 c3 -5 10 -6 15 -3 13 9 11 12 -6 12 -8 0 -12 -4 -9 -9z"/>
<path d="M366 48 c3 -5 10 -6 15 -3 13 9 11 12 -6 12 -8 0 -12 -4 -9 -9z"/>
<path d="M486 48 c3 -5 10 -6 15 -3 13 9 11 12 -6 12 -8 0 -12 -4 -9 -9z"/>
<path d="M606 48 c3 -5 10 -6 15 -3 13 9 11 12 -6 12 -8 0 -12 -4 -9 -9z"/>
<path d="M726 48 c3 -5 10 -6 15 -3 13 9 11 12 -6 12 -8 0 -12 -4 -9 -9z"/>
<path d="M846 48 c3 -5 10 -6 15 -3 13 9 11 12 -6 12 -8 0 -12 -4 -9 -9z"/>
<path d="M966 48 c3 -5 10 -6 15 -3 13 9 11 12 -6 12 -8 0 -12 -4 -9 -9z"/>
<path d="M1086 48 c3 -5 10 -6 15 -3 13 9 11 12 -6 12 -8 0 -12 -4 -9 -9z"/>
<path d="M1206 48 c3 -5 10 -6 15 -3 13 9 11 12 -6 12 -8 0 -12 -4 -9 -9z"/>
<path d="M1326 48 c3 -5 10 -6 15 -3 13 9 11 12 -6 12 -8 0 -12 -4 -9 -9z"/>
<path d="M1446 48 c3 -5 10 -6 15 -3 13 9 11 12 -6 12 -8 0 -12 -4 -9 -9z"/>
<path d="M1566 48 c3 -5 10 -6 15 -3 13 9 11 12 -6 12 -8 0 -12 -4 -9 -9z"/>
<path d="M1686 48 c3 -5 10 -6 15 -3 13 9 11 12 -6 12 -8 0 -12 -4 -9 -9z"/>
<path d="M1806 48 c3 -5 10 -6 15 -3 13 9 11 12 -6 12 -8 0 -12 -4 -9 -9z"/>
<path d="M1926 48 c3 -5 10 -6 15 -3 13 9 11 12 -6 12 -8 0 -12 -4 -9 -9z"/>
<path d="M2046 48 c3 -5 10 -6 15 -3 13 9 11 12 -6 12 -8 0 -12 -4 -9 -9z"/>
<path d="M2166 48 c3 -5 10 -6 15 -3 13 9 11 12 -6 12 -8 0 -12 -4 -9 -9z"/>
</g>
</svg>
